<?xml version="1.0" standalone="no"?>
<!DOCTYPE svg PUBLIC "-//W3C//DTD SVG 20010904//EN"
 "http://www.w3.org/TR/2001/REC-SVG-20010904/DTD/svg10.dtd">
<svg version="1.0" xmlns="http://www.w3.org/2000/svg"
 width="512.000000pt" height="512.000000pt" viewBox="0 0 512.000000 512.000000"
 preserveAspectRatio="xMidYMid meet">
<metadata>
Created by potrace 1.11, written by Peter Selinger 2001-2013
</metadata>
<g transform="translate(0.000000,512.000000) scale(0.100000,-0.100000)"
fill="#000000" stroke="none">
<path d="M1290 3994 c0 -24 49 -572 55 -619 l5 -40 -375 3 -375 4 0 -741 0
-741 185 0 185 0 0 254 0 254 198 4 c202 5 252 13 252 44 0 10 2 15 5 13 2 -3
25 -232 50 -509 25 -277 47 -505 50 -508 2 -2 239 -71 526 -152 l523 -147 514
149 c284 81 516 149 517 150 1 2 14 142 28 311 15 169 29 312 32 317 4 6 78
10 175 10 l169 0 14 -27 c8 -16 31 -76 51 -135 l38 -108 204 0 c112 0 204 2
204 4 0 7 -540 1439 -549 1453 -5 10 -39 -64 -104 -227 l-96 -242 75 -208 c41
-114 74 -213 74 -219 0 -7 -37 -11 -115 -11 l-115 0 0 28 c0 15 31 385 70 822
38 437 70 803 70 813 0 16 -67 17 -1270 17 -1170 0 -1270 -1 -1270 -16z m2296
-429 l-20 -225 -117 0 -117 0 -198 -465 c-109 -256 -201 -465 -204 -465 -3 0
-68 209 -145 465 l-140 465 -37 0 -38 0 0 225 0 225 518 0 517 0 -19 -225z
m-2361 -526 c82 -23 135 -121 120 -223 -10 -62 -41 -106 -95 -133 -38 -20 -60
-23 -162 -23 l-118 0 0 195 0 195 108 0 c59 0 125 -5 147 -11z m2234 -864
c-29 -322 -56 -590 -60 -596 -5 -8 -802 -239 -825 -239 -2 0 -4 237 -3 528 l1
527 50 -155 c27 -85 66 -206 85 -268 l36 -112 200 2 199 3 182 451 c99 249
183 450 185 448 2 -1 -21 -267 -50 -589z"/>
</g>
</svg>
